<?xml version="1.0" encoding="utf-8"?>
<!-- Generator: Adobe Illustrator 24.3.0, SVG Export Plug-In . SVG Version: 6.00 Build 0)  -->
<svg version="1.1" id="Calque_1" xmlns="http://www.w3.org/2000/svg" xmlns:xlink="http://www.w3.org/1999/xlink" x="0px" y="0px"
	 viewBox="0 0 39 25" style="enable-background:new 0 0 39 25;" xml:space="preserve">
<style type="text/css">
	.st0{fill:#FFFFFF;stroke:#000000;stroke-miterlimit:10;}
</style>
<path class="st0" d="M35.7,15.6H3.2c-1.8,0-3.2-1.4-3.2-3.1c0-1.7,1.5-3.1,3.2-3.1h32.5c1.8,0,3.2,1.4,3.2,3.1
	C39,14.2,37.5,15.6,35.7,15.6z M35.7,6.2H3.2C1.4,6.2,0,4.8,0,3.1S1.5,0,3.2,0h32.5C37.6,0,39,1.4,39,3.1S37.5,6.2,35.7,6.2z
	 M3.2,18.8h32.5c1.8,0,3.2,1.4,3.2,3.1c0,1.7-1.5,3.1-3.2,3.1H3.2C1.4,25,0,23.6,0,21.9C0,20.1,1.4,18.8,3.2,18.8z"/>
</svg>
