<?xml version="1.0" encoding="utf-8"?>
<!-- Generator: Adobe Illustrator 24.3.0, SVG Export Plug-In . SVG Version: 6.00 Build 0)  -->
<svg version="1.1"
	 id="Calque_1" xmlns:cc="http://creativecommons.org/ns#" xmlns:dc="http://purl.org/dc/elements/1.1/" xmlns:rdf="http://www.w3.org/1999/02/22-rdf-syntax-ns#"
	 xmlns="http://www.w3.org/2000/svg" xmlns:xlink="http://www.w3.org/1999/xlink" x="0px" y="0px" viewBox="0 0 309 299.2"
	 style="enable-background:new 0 0 309 299.2;" xml:space="preserve">
<style type="text/css">
	.st0{fill:url(#SVGID_1_);stroke:url(#SVGID_2_);stroke-miterlimit:10;}
	.st1{fill:#FFFFFF;}
</style>
<linearGradient id="SVGID_1_" gradientUnits="userSpaceOnUse" x1="71.9601" y1="254.1353" x2="228.9601" y2="60.1353" gradientTransform="matrix(1 0 0 -1 0 299.8898)">
	<stop  offset="0" style="stop-color:#56C4F2"/>
	<stop  offset="1" style="stop-color:#130073"/>
</linearGradient>
<linearGradient id="SVGID_2_" gradientUnits="userSpaceOnUse" x1="5.9" y1="150.2898" x2="306.1" y2="150.2898" gradientTransform="matrix(1 0 0 -1 0 299.8898)">
	<stop  offset="0" style="stop-color:#FFFFFF"/>
	<stop  offset="1" style="stop-color:#000000"/>
</linearGradient>
<circle class="st0" cx="156" cy="149.6" r="149.6"/>
<path class="st1" d="M275.3,99L158,53.2c-1.5-0.6-3.2-0.6-4.7,0L36,99c-3.4,1.3-5,5.1-3.7,8.5c0.6,1.5,1.7,2.7,3.1,3.5l42.2,21.1
	v54.7c0.5,8.7,5.5,16.5,13.1,20.7c15,10.1,40.7,15.4,65.4,15.4s50.3-5.2,65.4-15.4c7.6-4.2,12.6-12,13.1-20.7v-54.7l13-6.9v64.6
	c1.2,3.6,5.1,5.6,8.7,4.4c2.1-0.7,3.7-2.3,4.4-4.4v-70.8l16-8c3.2-1.7,4.5-5.6,2.8-8.8c-0.7-1.4-2-2.5-3.5-3.1L275.3,99z
	 M53.7,105.9l101.6-39.6l101.6,39.6l-90.8,45.8l-10.8,5l-10.8-5L53.7,105.9z M220.7,166.4v20.7c0,9.6-24.8,22.9-65.4,22.9
	s-65.4-13.6-65.4-23.2v-48.3l31.5,15.8l20.1,10.1l10.6,5.3c1.9,1,4.1,1,5.9,0l11.1-5.3l20.4-10.1l31.5-15.8L220.7,166.4z"/>
</svg>
