<?xml version="1.0" encoding="utf-8"?>
<!-- Generator: Adobe Illustrator 24.3.0, SVG Export Plug-In . SVG Version: 6.00 Build 0)  -->
<svg version="1.1"
	 id="Calque_1" xmlns:cc="http://creativecommons.org/ns#" xmlns:dc="http://purl.org/dc/elements/1.1/" xmlns:rdf="http://www.w3.org/1999/02/22-rdf-syntax-ns#"
	 xmlns="http://www.w3.org/2000/svg" xmlns:xlink="http://www.w3.org/1999/xlink" x="0px" y="0px" viewBox="0 0 309 299.2"
	 style="enable-background:new 0 0 309 299.2;" xml:space="preserve">
<style type="text/css">
	.st0{fill:url(#SVGID_1_);stroke:url(#SVGID_2_);stroke-miterlimit:10;}
	.st1{fill:#FFFFFF;}
</style>
<linearGradient id="SVGID_1_" gradientUnits="userSpaceOnUse" x1="71.9601" y1="254.1353" x2="228.9601" y2="60.1353" gradientTransform="matrix(1 0 0 -1 0 299.8898)">
	<stop  offset="0" style="stop-color:#56C4F2"/>
	<stop  offset="1" style="stop-color:#130073"/>
</linearGradient>
<linearGradient id="SVGID_2_" gradientUnits="userSpaceOnUse" x1="5.9" y1="150.2898" x2="306.1" y2="150.2898" gradientTransform="matrix(1 0 0 -1 0 299.8898)">
	<stop  offset="0" style="stop-color:#FFFFFF"/>
	<stop  offset="1" style="stop-color:#000000"/>
</linearGradient>
<circle class="st0" cx="156" cy="149.6" r="149.6"/>
<g>
	<g>
		<path class="st1" d="M92.4,225.9c-13.7,0-24.9-11.1-24.9-24.9c0-7.2,3-14,8.3-18.6l81.3-72.1c-1.8-4.7-2.6-9.7-2.6-14.9
			c0-24,19.5-43.5,43.5-43.5c6.3,0,12.7,1.4,18.6,4.2c1.8,0.8,3.1,2.5,3.5,4.5c0.3,2-0.3,4-1.7,5.5l-26.6,26.7l8.7,8.7L227.3,75
			c1.4-1.4,3.4-2.1,5.5-1.7c2,0.4,3.7,1.7,4.5,3.5c2.8,5.9,4.2,12.4,4.2,18.6c0,24-19.5,43.5-43.5,43.5c-5.2,0-10.2-0.9-14.9-2.7
			l-72.2,81.3C106.3,222.8,99.6,225.9,92.4,225.9z M198,64.3c-17.1,0-31.1,13.9-31.1,31.1c0,4.9,1.1,9.5,3.3,13.6
			c1.3,2.5,0.8,5.6-1.4,7.5l-84.7,75.2c-2.7,2.3-4.1,5.6-4.1,9.3c0,6.9,5.6,12.4,12.4,12.4c3.7,0,6.9-1.5,9.2-4.1l75.2-84.8
			c1.9-2.1,5-2.7,7.5-1.4c4.1,2.2,8.7,3.3,13.6,3.3c17.1,0,31.1-13.9,31.1-31.1c0-1.4-0.1-2.9-0.3-4.3l-19.4,19.3
			c-2.2,2.3-5.3,3.6-8.6,3.7c-3.4,0-6.6-1.3-9-3.7l-8.7-8.7c-2.4-2.4-3.7-5.7-3.7-9c0-3.3,1.4-6.4,3.8-8.7l19.2-19.3
			C200.9,64.5,199.4,64.3,198,64.3z"/>
	</g>
	<g>
		<path class="st1" d="M210.4,225.9c-1.6,0-3.2-0.6-4.4-1.8l-58.2-58.2c-2.4-2.4-2.4-6.4,0-8.8c2.4-2.4,6.4-2.4,8.8,0l53.8,53.8
			l16.1-16.1l-55.2-55.2c-2.4-2.4-2.4-6.4,0-8.8c2.4-2.4,6.4-2.4,8.8,0l59.6,59.6c2.4,2.4,2.4,6.4,0,8.8l-24.9,24.9
			C213.6,225.3,212,225.9,210.4,225.9z"/>
		<path class="st1" d="M145.1,135.7c-1.6,0-3.2-0.6-4.4-1.8l-40.3-40.3c-2.4-2.4-2.4-6.4,0-8.8s6.4-2.4,8.8,0l40.3,40.3
			c2.4,2.4,2.4,6.4,0,8.8C148.2,135.1,146.6,135.7,145.1,135.7z"/>
		<path class="st1" d="M92.4,107.8c-0.3,0-0.5,0-0.8,0c-1.9-0.2-3.6-1.3-4.6-3L68.4,73.8c-1.5-2.4-1.1-5.6,0.9-7.6l12.4-12.4
			c2-2,5.1-2.4,7.6-0.9l31.1,18.6c1.6,1,2.7,2.7,3,4.6c0.2,1.9-0.4,3.8-1.8,5.2L96.8,106C95.6,107.2,94,107.8,92.4,107.8z
			 M81.5,71.5l12.1,20.1L107.2,78L87.1,66L81.5,71.5z"/>
	</g>
</g>
</svg>
