<?xml version="1.0" encoding="utf-8"?>
<!-- Generator: Adobe Illustrator 24.3.0, SVG Export Plug-In . SVG Version: 6.00 Build 0)  -->
<svg version="1.1" id="Calque_1" xmlns="http://www.w3.org/2000/svg" xmlns:xlink="http://www.w3.org/1999/xlink" x="0px" y="0px"
	 viewBox="0 0 309 299.2" style="enable-background:new 0 0 309 299.2;" xml:space="preserve">
<style type="text/css">
	.st0{fill:#56C4F2;}
	.st1{fill:#FFFFFF;}
</style>
<circle class="st0" cx="-82.5" cy="62.4" r="62.5"/>
<g transform="matrix(.54398 0 0 .54398 -4.7917 -4.7917)">
	<path class="st1" d="M-142.9,50.4c-24.9,0-45.1,20.2-45.1,45.1c0,10.5,6.8,23.1,13.3,35.3c5.7,10.6,11.1,20.6,11.1,27.8
		c0,0.7,0.6,1.3,1.3,1.3h38.8c0.7,0,1.3-0.6,1.3-1.3c0-7.2,5.4-17.2,11.1-27.8c6.5-12.1,13.3-24.7,13.3-35.3
		C-97.7,70.6-118,50.4-142.9,50.4L-142.9,50.4z"/>
	<path class="st1" d="M-123.4,162.8h-38.8c-0.7,0-1.3,0.6-1.3,1.3v6.9c0,0.7,0.6,1.3,1.3,1.3h38.8c0.7,0,1.3-0.6,1.3-1.3v-6.9
		C-122.1,163.4-122.7,162.8-123.4,162.8z"/>
	<path class="st1" d="M-123.4,174.9h-38.8c-0.7,0-1.3,0.6-1.3,1.3v6.9c0,0.7,0.6,1.3,1.3,1.3h38.8c0.7,0,1.3-0.6,1.3-1.3v-6.9
		C-122.1,175.5-122.7,174.9-123.4,174.9z"/>
	<path class="st1" d="M-128.2,187.1h-29.3c-0.5,0-1,0.3-1.2,0.7c-0.2,0.5-0.2,1,0.1,1.4l5.3,6.9c0.3,0.3,0.6,0.5,1.1,0.5h18.7
		c0.4,0,0.8-0.2,1.1-0.5l5.3-6.9c0.3-0.4,0.4-0.9,0.1-1.4C-127.3,187.4-127.7,187.1-128.2,187.1L-128.2,187.1z"/>
</g>
<polygon class="st0" points="-74.2,33.6 -90.8,50.1 -83.8,53.7 -90.8,66.6 -74.2,50.1 -81.2,46.5 "/>
</svg>
