<?xml version="1.0" encoding="utf-8"?>
<!-- Generator: Adobe Illustrator 24.3.0, SVG Export Plug-In . SVG Version: 6.00 Build 0)  -->
<svg version="1.1"
	 id="Calque_1" xmlns:cc="http://creativecommons.org/ns#" xmlns:dc="http://purl.org/dc/elements/1.1/" xmlns:rdf="http://www.w3.org/1999/02/22-rdf-syntax-ns#"
	 xmlns="http://www.w3.org/2000/svg" xmlns:xlink="http://www.w3.org/1999/xlink" x="0px" y="0px" viewBox="0 0 309 299.2"
	 style="enable-background:new 0 0 309 299.2;" xml:space="preserve">
<style type="text/css">
	.st0{fill:url(#SVGID_1_);stroke:url(#SVGID_2_);stroke-miterlimit:10;}
	.st1{fill:#FFFFFF;}
	.st2{fill:url(#SVGID_3_);stroke:url(#SVGID_4_);stroke-miterlimit:10;}
</style>
<linearGradient id="SVGID_1_" gradientUnits="userSpaceOnUse" x1="71.9624" y1="45.7526" x2="228.9624" y2="239.7526">
	<stop  offset="0" style="stop-color:#56C4F2"/>
	<stop  offset="1" style="stop-color:#130073"/>
</linearGradient>
<linearGradient id="SVGID_2_" gradientUnits="userSpaceOnUse" x1="5.9048" y1="149.5952" x2="306.0952" y2="149.5952">
	<stop  offset="0" style="stop-color:#FFFFFF"/>
	<stop  offset="1" style="stop-color:#000000"/>
</linearGradient>
<circle class="st0" cx="156" cy="149.6" r="149.6"/>
<g transform="matrix(.54398 0 0 .54398 -4.7917 -4.7917)">
	<path class="st1" d="M295.6,108.8c-59.6,0-108,48.4-108,108c0,25.2,16.2,55.3,31.8,84.4c13.6,25.4,26.5,49.4,26.5,66.5
		c0,1.8,1.4,3.2,3.2,3.2h93c1.8,0,3.2-1.4,3.2-3.2c0-17.1,12.9-41.1,26.5-66.5c15.6-29.1,31.8-59.1,31.8-84.4
		C403.6,157.2,355.1,108.8,295.6,108.8L295.6,108.8z"/>
	<path class="st1" d="M342.1,377.7h-93c-1.8,0-3.2,1.4-3.2,3.2v16.6c0,1.8,1.4,3.2,3.2,3.2h93c1.8,0,3.2-1.4,3.2-3.2v-16.6
		C345.3,379.1,343.8,377.7,342.1,377.7z"/>
	<path class="st1" d="M342.1,406.8h-93c-1.8,0-3.2,1.4-3.2,3.2v16.6c0,1.8,1.4,3.2,3.2,3.2h93c1.8,0,3.2-1.4,3.2-3.2V410
		C345.3,408.2,343.8,406.8,342.1,406.8z"/>
	<path class="st1" d="M330.6,435.9h-70c-1.2,0-2.3,0.7-2.9,1.8c-0.5,1.1-0.4,2.4,0.3,3.3l12.7,16.6c0.6,0.8,1.5,1.2,2.5,1.2h44.7
		c1,0,1.9-0.5,2.5-1.2l12.7-16.6c0.7-1,0.9-2.3,0.3-3.3C332.9,436.6,331.8,435.9,330.6,435.9L330.6,435.9z"/>
</g>
<linearGradient id="SVGID_3_" gradientUnits="userSpaceOnUse" x1="136.2198" y1="120.1294" x2="175.7793" y2="120.1294">
	<stop  offset="0" style="stop-color:#56C4F2"/>
	<stop  offset="1" style="stop-color:#130073"/>
</linearGradient>
<linearGradient id="SVGID_4_" gradientUnits="userSpaceOnUse" x1="134.179" y1="120.1293" x2="177.8204" y2="120.1293">
	<stop  offset="0" style="stop-color:#FFFFFF"/>
	<stop  offset="1" style="stop-color:#000000"/>
</linearGradient>
<polygon class="st2" points="175.8,80.6 136.2,120.1 152.9,128.7 136.2,159.7 175.8,120.1 159.1,111.6 "/>
</svg>
